<svg id="visual" viewBox="0 0 1920 125" width="1920" height="125" xmlns="http://www.w3.org/2000/svg" xmlns:xlink="http://www.w3.org/1999/xlink" version="1.1"><rect x="0" y="0" width="1920" height="125" fill="#00060b"></rect><path d="M399 0L394 10.5C389 21 379 42 388.8 62.8C398.7 83.7 428.3 104.3 443.2 114.7L458 125L0 125L0 114.7C0 104.3 0 83.7 0 62.8C0 42 0 21 0 10.5L0 0Z" fill="#ffeaa7"></path><path d="M343 0L342.2 10.5C341.3 21 339.7 42 349.3 62.8C359 83.7 380 104.3 390.5 114.7L401 125L0 125L0 114.7C0 104.3 0 83.7 0 62.8C0 42 0 21 0 10.5L0 0Z" fill="#e2d696"></path><path d="M332 0L326.8 10.5C321.7 21 311.3 42 315 62.8C318.7 83.7 336.3 104.3 345.2 114.7L354 125L0 125L0 114.7C0 104.3 0 83.7 0 62.8C0 42 0 21 0 10.5L0 0Z" fill="#c7c287"></path><path d="M258 0L257 10.5C256 21 254 42 252.7 62.8C251.3 83.7 250.7 104.3 250.3 114.7L250 125L0 125L0 114.7C0 104.3 0 83.7 0 62.8C0 42 0 21 0 10.5L0 0Z" fill="#adaf77"></path><path d="M225 0L220.8 10.5C216.7 21 208.3 42 203.8 62.8C199.3 83.7 198.7 104.3 198.3 114.7L198 125L0 125L0 114.7C0 104.3 0 83.7 0 62.8C0 42 0 21 0 10.5L0 0Z" fill="#939b69"></path><path d="M134 0L141.3 10.5C148.7 21 163.3 42 173.8 62.8C184.3 83.7 190.7 104.3 193.8 114.7L197 125L0 125L0 114.7C0 104.3 0 83.7 0 62.8C0 42 0 21 0 10.5L0 0Z" fill="#7b885b"></path><path d="M137 0L133.8 10.5C130.7 21 124.3 42 118.3 62.8C112.3 83.7 106.7 104.3 103.8 114.7L101 125L0 125L0 114.7C0 104.3 0 83.7 0 62.8C0 42 0 21 0 10.5L0 0Z" fill="#65764d"></path><path d="M42 0L45.3 10.5C48.7 21 55.3 42 61.2 62.8C67 83.7 72 104.3 74.5 114.7L77 125L0 125L0 114.7C0 104.3 0 83.7 0 62.8C0 42 0 21 0 10.5L0 0Z" fill="#4f6340"></path></svg>