<svg id="visual" viewBox="0 0 1920 1080" width="1920" height="1080" xmlns="http://www.w3.org/2000/svg" xmlns:xlink="http://www.w3.org/1999/xlink" version="1.1"><path d="M0 411L64 427.3C128 443.7 256 476.3 384 449.3C512 422.3 640 335.7 768 357.2C896 378.7 1024 508.3 1152 526.3C1280 544.3 1408 450.7 1536 378.7C1664 306.7 1792 256.3 1856 231.2L1920 206L1920 0L1856 0C1792 0 1664 0 1536 0C1408 0 1280 0 1152 0C1024 0 896 0 768 0C640 0 512 0 384 0C256 0 128 0 64 0L0 0Z" fill="#00060b"></path><path d="M0 584L64 616.5C128 649 256 714 384 678C512 642 640 505 768 505C896 505 1024 642 1152 676.2C1280 710.3 1408 641.7 1536 605.7C1664 569.7 1792 566.3 1856 564.7L1920 563L1920 204L1856 229.2C1792 254.3 1664 304.7 1536 376.7C1408 448.7 1280 542.3 1152 524.3C1024 506.3 896 376.7 768 355.2C640 333.7 512 420.3 384 447.3C256 474.3 128 441.7 64 425.3L0 409Z" fill="#ffeaa7"></path><path d="M0 1081L64 1081C128 1081 256 1081 384 1081C512 1081 640 1081 768 1081C896 1081 1024 1081 1152 1081C1280 1081 1408 1081 1536 1081C1664 1081 1792 1081 1856 1081L1920 1081L1920 561L1856 562.7C1792 564.3 1664 567.7 1536 603.7C1408 639.7 1280 708.3 1152 674.2C1024 640 896 503 768 503C640 503 512 640 384 676C256 712 128 647 64 614.5L0 582Z" fill="#00060b"></path></svg>