<svg id="visual" viewBox="0 0 1920 1080" width="1920" height="1080" xmlns="http://www.w3.org/2000/svg" xmlns:xlink="http://www.w3.org/1999/xlink" version="1.1"><rect x="0" y="0" width="1920" height="1080" fill="#00060b"></rect><path d="M0 741L45.7 728.5C91.3 716 182.7 691 274.2 693C365.7 695 457.3 724 548.8 737C640.3 750 731.7 747 823 743.5C914.3 740 1005.7 736 1097 735.3C1188.3 734.7 1279.7 737.3 1371.2 746.3C1462.7 755.3 1554.3 770.7 1645.8 768.7C1737.3 766.7 1828.7 747.3 1874.3 737.7L1920 728L1920 1081L1874.3 1081C1828.7 1081 1737.3 1081 1645.8 1081C1554.3 1081 1462.7 1081 1371.2 1081C1279.7 1081 1188.3 1081 1097 1081C1005.7 1081 914.3 1081 823 1081C731.7 1081 640.3 1081 548.8 1081C457.3 1081 365.7 1081 274.2 1081C182.7 1081 91.3 1081 45.7 1081L0 1081Z" fill="#ffeaa7"></path><path d="M0 712L45.7 729.3C91.3 746.7 182.7 781.3 274.2 788.8C365.7 796.3 457.3 776.7 548.8 779.3C640.3 782 731.7 807 823 814.5C914.3 822 1005.7 812 1097 808.8C1188.3 805.7 1279.7 809.3 1371.2 819C1462.7 828.7 1554.3 844.3 1645.8 834.3C1737.3 824.3 1828.7 788.7 1874.3 770.8L1920 753L1920 1081L1874.3 1081C1828.7 1081 1737.3 1081 1645.8 1081C1554.3 1081 1462.7 1081 1371.2 1081C1279.7 1081 1188.3 1081 1097 1081C1005.7 1081 914.3 1081 823 1081C731.7 1081 640.3 1081 548.8 1081C457.3 1081 365.7 1081 274.2 1081C182.7 1081 91.3 1081 45.7 1081L0 1081Z" fill="#d2cc8d"></path><path d="M0 868L45.7 869C91.3 870 182.7 872 274.2 864.8C365.7 857.7 457.3 841.3 548.8 844.5C640.3 847.7 731.7 870.3 823 876.7C914.3 883 1005.7 873 1097 867.2C1188.3 861.3 1279.7 859.7 1371.2 865.3C1462.7 871 1554.3 884 1645.8 875.7C1737.3 867.3 1828.7 837.7 1874.3 822.8L1920 808L1920 1081L1874.3 1081C1828.7 1081 1737.3 1081 1645.8 1081C1554.3 1081 1462.7 1081 1371.2 1081C1279.7 1081 1188.3 1081 1097 1081C1005.7 1081 914.3 1081 823 1081C731.7 1081 640.3 1081 548.8 1081C457.3 1081 365.7 1081 274.2 1081C182.7 1081 91.3 1081 45.7 1081L0 1081Z" fill="#a8ae76"></path><path d="M0 867L45.7 883.5C91.3 900 182.7 933 274.2 936.3C365.7 939.7 457.3 913.3 548.8 901.8C640.3 890.3 731.7 893.7 823 906C914.3 918.3 1005.7 939.7 1097 936.2C1188.3 932.7 1279.7 904.3 1371.2 889.3C1462.7 874.3 1554.3 872.7 1645.8 880.2C1737.3 887.7 1828.7 904.3 1874.3 912.7L1920 921L1920 1081L1874.3 1081C1828.7 1081 1737.3 1081 1645.8 1081C1554.3 1081 1462.7 1081 1371.2 1081C1279.7 1081 1188.3 1081 1097 1081C1005.7 1081 914.3 1081 823 1081C731.7 1081 640.3 1081 548.8 1081C457.3 1081 365.7 1081 274.2 1081C182.7 1081 91.3 1081 45.7 1081L0 1081Z" fill="#819160"></path><path d="M0 999L45.7 1003.7C91.3 1008.3 182.7 1017.7 274.2 1020.8C365.7 1024 457.3 1021 548.8 1014.7C640.3 1008.3 731.7 998.7 823 999.2C914.3 999.7 1005.7 1010.3 1097 1013.2C1188.3 1016 1279.7 1011 1371.2 1000.8C1462.7 990.7 1554.3 975.3 1645.8 977.3C1737.3 979.3 1828.7 998.7 1874.3 1008.3L1920 1018L1920 1081L1874.3 1081C1828.7 1081 1737.3 1081 1645.8 1081C1554.3 1081 1462.7 1081 1371.2 1081C1279.7 1081 1188.3 1081 1097 1081C1005.7 1081 914.3 1081 823 1081C731.7 1081 640.3 1081 548.8 1081C457.3 1081 365.7 1081 274.2 1081C182.7 1081 91.3 1081 45.7 1081L0 1081Z" fill="#5d744c"></path></svg>