<svg id="visual" viewBox="0 0 960 540" width="960" height="540" xmlns="http://www.w3.org/2000/svg" xmlns:xlink="http://www.w3.org/1999/xlink" version="1.1"><rect x="0" y="0" width="960" height="540" fill="#00060b"></rect><defs><linearGradient id="grad1_0" x1="43.8%" y1="0%" x2="100%" y2="100%"><stop offset="14.444444444444446%" stop-color="#00060b" stop-opacity="1"></stop><stop offset="85.55555555555554%" stop-color="#00060b" stop-opacity="1"></stop></linearGradient></defs><defs><linearGradient id="grad2_0" x1="0%" y1="0%" x2="56.3%" y2="100%"><stop offset="14.444444444444446%" stop-color="#00060b" stop-opacity="1"></stop><stop offset="85.55555555555554%" stop-color="#00060b" stop-opacity="1"></stop></linearGradient></defs><g transform="translate(960, 0)"><path d="M0 486C-42.5 484.1 -85 482.3 -125.8 469.4C-166.5 456.6 -205.6 432.7 -231 400.1C-256.4 367.5 -268.3 326.1 -299.8 299.8C-331.3 273.5 -382.4 262.2 -402.7 232.5C-423 202.8 -412.4 154.7 -421.1 112.8C-429.9 71 -457.9 35.5 -486 0L0 0Z" fill="#ffeaa7"></path></g><g transform="translate(0, 540)"><path d="M0 -486C43.1 -484.3 86.2 -482.6 125.8 -469.4C165.3 -456.3 201.3 -431.7 234 -405.3C266.7 -378.9 296 -350.8 320.3 -320.3C344.7 -289.8 364 -257 389.7 -225C415.4 -193 447.5 -161.9 464.6 -124.5C481.7 -87.1 483.9 -43.6 486 0L0 0Z" fill="#ffeaa7"></path></g></svg>