<svg id="visual" viewBox="0 0 1920 300" width="1920" height="300" xmlns="http://www.w3.org/2000/svg" xmlns:xlink="http://www.w3.org/1999/xlink" version="1.1"><path d="M0 161L45.7 160.8C91.3 160.7 182.7 160.3 274.2 155.5C365.7 150.7 457.3 141.3 548.8 146.5C640.3 151.7 731.7 171.3 823 177.5C914.3 183.7 1005.7 176.3 1097 176.2C1188.3 176 1279.7 183 1371.2 188.5C1462.7 194 1554.3 198 1645.8 202.8C1737.3 207.7 1828.7 213.3 1874.3 216.2L1920 219L1920 0L1874.3 0C1828.7 0 1737.3 0 1645.8 0C1554.3 0 1462.7 0 1371.2 0C1279.7 0 1188.3 0 1097 0C1005.7 0 914.3 0 823 0C731.7 0 640.3 0 548.8 0C457.3 0 365.7 0 274.2 0C182.7 0 91.3 0 45.7 0L0 0Z" fill="#dac583"></path><path d="M0 137L45.7 137.2C91.3 137.3 182.7 137.7 274.2 139.5C365.7 141.3 457.3 144.7 548.8 139.3C640.3 134 731.7 120 823 121.8C914.3 123.7 1005.7 141.3 1097 145.5C1188.3 149.7 1279.7 140.3 1371.2 137.5C1462.7 134.7 1554.3 138.3 1645.8 134.3C1737.3 130.3 1828.7 118.7 1874.3 112.8L1920 107L1920 0L1874.3 0C1828.7 0 1737.3 0 1645.8 0C1554.3 0 1462.7 0 1371.2 0C1279.7 0 1188.3 0 1097 0C1005.7 0 914.3 0 823 0C731.7 0 640.3 0 548.8 0C457.3 0 365.7 0 274.2 0C182.7 0 91.3 0 45.7 0L0 0Z" fill="#b7b173"></path><path d="M0 139L45.7 129.5C91.3 120 182.7 101 274.2 90.8C365.7 80.7 457.3 79.3 548.8 78.7C640.3 78 731.7 78 823 83.8C914.3 89.7 1005.7 101.3 1097 111.2C1188.3 121 1279.7 129 1371.2 130C1462.7 131 1554.3 125 1645.8 117.3C1737.3 109.7 1828.7 100.3 1874.3 95.7L1920 91L1920 0L1874.3 0C1828.7 0 1737.3 0 1645.8 0C1554.3 0 1462.7 0 1371.2 0C1279.7 0 1188.3 0 1097 0C1005.7 0 914.3 0 823 0C731.7 0 640.3 0 548.8 0C457.3 0 365.7 0 274.2 0C182.7 0 91.3 0 45.7 0L0 0Z" fill="#979d65"></path><path d="M0 50L45.7 56.3C91.3 62.7 182.7 75.3 274.2 80.8C365.7 86.3 457.3 84.7 548.8 86.2C640.3 87.7 731.7 92.3 823 93.5C914.3 94.7 1005.7 92.3 1097 88C1188.3 83.7 1279.7 77.3 1371.2 75.5C1462.7 73.7 1554.3 76.3 1645.8 81.8C1737.3 87.3 1828.7 95.7 1874.3 99.8L1920 104L1920 0L1874.3 0C1828.7 0 1737.3 0 1645.8 0C1554.3 0 1462.7 0 1371.2 0C1279.7 0 1188.3 0 1097 0C1005.7 0 914.3 0 823 0C731.7 0 640.3 0 548.8 0C457.3 0 365.7 0 274.2 0C182.7 0 91.3 0 45.7 0L0 0Z" fill="#798958"></path><path d="M0 38L45.7 41.2C91.3 44.3 182.7 50.7 274.2 54.3C365.7 58 457.3 59 548.8 56.7C640.3 54.3 731.7 48.7 823 44.2C914.3 39.7 1005.7 36.3 1097 36.8C1188.3 37.3 1279.7 41.7 1371.2 47.3C1462.7 53 1554.3 60 1645.8 55.8C1737.3 51.7 1828.7 36.3 1874.3 28.7L1920 21L1920 0L1874.3 0C1828.7 0 1737.3 0 1645.8 0C1554.3 0 1462.7 0 1371.2 0C1279.7 0 1188.3 0 1097 0C1005.7 0 914.3 0 823 0C731.7 0 640.3 0 548.8 0C457.3 0 365.7 0 274.2 0C182.7 0 91.3 0 45.7 0L0 0Z" fill="#5d744c"></path></svg>