<svg id="visual" viewBox="0 0 900 600" width="900" height="600" xmlns="http://www.w3.org/2000/svg" xmlns:xlink="http://www.w3.org/1999/xlink" version="1.1"><rect x="0" y="0" width="900" height="600" fill="#00060b"></rect><defs><linearGradient id="grad1_0" x1="33.3%" y1="0%" x2="100%" y2="100%"><stop offset="20%" stop-color="#00060b" stop-opacity="1"></stop><stop offset="80%" stop-color="#00060b" stop-opacity="1"></stop></linearGradient></defs><defs><linearGradient id="grad2_0" x1="0%" y1="0%" x2="66.7%" y2="100%"><stop offset="20%" stop-color="#00060b" stop-opacity="1"></stop><stop offset="80%" stop-color="#00060b" stop-opacity="1"></stop></linearGradient></defs><g transform="translate(900, 0)"><path d="M0 486.7C-50.8 452 -101.6 417.3 -165.7 400C-229.8 382.8 -307 383 -344.2 344.2C-381.3 305.4 -378.3 227.6 -395.4 163.8C-412.5 99.9 -449.6 50 -486.7 0L0 0Z" fill="#ffeaa7"></path></g><g transform="translate(0, 600)"><path d="M0 -486.7C55.7 -446.8 111.4 -406.8 153.8 -371.4C196.3 -336 225.6 -305.3 279.3 -279.3C333 -253.3 411.1 -232 449.7 -186.3C488.3 -140.5 487.5 -70.3 486.7 0L0 0Z" fill="#ffeaa7"></path></g></svg>